<svg xmlns="http://www.w3.org/2000/svg" width="900" height="340" viewBox="0 0 900 340">
<rect width="900" height="340" fill="white"/>
<g font-family="sans-serif" font-size="13" fill="#22344a">
<text x="70" y="20">Validation panel loss vs. training steps (log x-axis) across all runs</text>
<path d="M70 30V300H720" fill="none" stroke="#aab8c6"/>
<text x="20" y="35">5.37</text><text x="20" y="303">0</text>
<text x="60" y="315">1</text><text x="512" y="315">3k</text>
<text x="619" y="315">20k</text><text x="705" y="315">100k</text>
<polyline points="70.0,70.6 482.9,266.9 522.0,267.1" fill="none" stroke="#247b72" stroke-width="3"/><circle cx="70.0" cy="70.6" r="3.5" fill="#247b72"/><circle cx="482.9" cy="266.9" r="3.5" fill="#247b72"/><circle cx="522.0" cy="267.1" r="3.5" fill="#247b72"/><polyline points="70.0,70.6 511.7,267.2 550.9,267.1" fill="none" stroke="#b77515" stroke-width="3"/><circle cx="70.0" cy="70.6" r="3.5" fill="#b77515"/><circle cx="511.7" cy="267.2" r="3.5" fill="#b77515"/><circle cx="550.9" cy="267.1" r="3.5" fill="#b77515"/><polyline points="70.0,70.6 590.0,267.4 629.1,267.5" fill="none" stroke="#7a4fb5" stroke-width="3"/><circle cx="70.0" cy="70.6" r="3.5" fill="#7a4fb5"/><circle cx="590.0" cy="267.4" r="3.5" fill="#7a4fb5"/><circle cx="629.1" cy="267.5" r="3.5" fill="#7a4fb5"/><polyline points="70.0,70.6 680.9,266.7 720.0,260.3" fill="none" stroke="#c0392b" stroke-width="3"/><circle cx="70.0" cy="70.6" r="3.5" fill="#c0392b"/><circle cx="680.9" cy="266.7" r="3.5" fill="#c0392b"/><circle cx="720.0" cy="260.3" r="3.5" fill="#c0392b"/><polyline points="70.0,68.5 590.0,267.6 629.1,267.5" fill="none" stroke="#1f6fb2" stroke-width="3"/><circle cx="70.0" cy="68.5" r="3.5" fill="#1f6fb2"/><circle cx="590.0" cy="267.6" r="3.5" fill="#1f6fb2"/><circle cx="629.1" cy="267.5" r="3.5" fill="#1f6fb2"/>
<rect x="600" y="20" width="12" height="12" fill="#247b72"/><text x="616" y="30" font-size="11">baseline</text><rect x="600" y="38" width="12" height="12" fill="#b77515"/><text x="616" y="48" font-size="11">5,000 steps</text><rect x="600" y="56" width="12" height="12" fill="#7a4fb5"/><text x="616" y="66" font-size="11">20,000 steps</text><rect x="600" y="74" width="12" height="12" fill="#c0392b"/><text x="616" y="84" font-size="11">100,000 steps</text><rect x="600" y="92" width="12" height="12" fill="#1f6fb2"/><text x="616" y="102" font-size="11">20,000 steps, bigger arch</text>
</g></svg>